<svg data-name="Layer 2" xmlns="http://www.w3.org/2000/svg" viewBox="0 0 1142.69 115.18">
  <g style="opacity:.75">
    <path d="M.5 1.18h24.62v110.65H.5V1.18Zm89.31 95.41v15.99l-10.86.38c-10.84.35-18.24-1.4-22.21-5.25-2.57-2.45-3.86-6.23-3.86-11.34V46H40.65V30.76h12.23V7.93h22.69v22.82h14.24v15.24H75.57v43.24c0 3.35.46 5.44 1.37 6.27.91.83 3.7 1.24 8.37 1.24.7 0 1.43-.01 2.21-.04.78-.02 1.54-.06 2.29-.11Zm40.87-79.2c0 7.56-1.97 13.51-5.91 17.87s-9.48 7.18-16.61 8.48v-7.88c5.26-1.55 8.88-4.18 10.86-7.88 1.07-2.2 1.53-4.43 1.37-6.68h-12.63V1.55h22.93v15.84Zm80.61 16.37c6.87 4.1 10.81 11.16 11.83 21.17h-22.93c-.32-2.75-1.15-4.93-2.49-6.53-2.52-2.9-6.81-4.35-12.87-4.35-4.99 0-8.54.73-10.66 2.18-2.12 1.45-3.18 3.15-3.18 5.1 0 2.45 1.13 4.23 3.38 5.33 2.25 1.15 10.22 3.13 23.9 5.93 9.12 2 15.96 5.03 20.52 9.08 4.51 4.1 6.76 9.23 6.76 15.39 0 8.11-3.23 14.73-9.7 19.86-6.46 5.13-16.45 7.69-29.97 7.69s-23.96-2.72-30.53-8.14c-6.57-5.43-9.86-12.35-9.86-20.76h23.25c.48 3.8 1.53 6.51 3.14 8.11 2.84 2.85 8.1 4.28 15.77 4.28 4.5 0 8.09-.62 10.74-1.88 2.65-1.25 3.98-3.13 3.98-5.63s-1.07-4.23-3.22-5.48c-2.15-1.25-10.11-3.4-23.9-6.46-9.92-2.3-16.92-5.18-21-8.63-4.08-3.4-6.12-8.31-6.12-14.71 0-7.56 3.18-14.05 9.53-19.48 6.36-5.43 15.3-8.15 26.83-8.15s19.87 2.03 26.79 6.08Zm86.89 5.1c6.06-7.21 16.47-10.81 31.22-10.81 9.6 0 18.13 1.78 25.59 5.33 7.46 3.55 11.18 10.26 11.18 20.12v37.53c0 2.6.05 5.76.16 9.46.16 2.8.62 4.7 1.37 5.71.75 1 1.88 1.83 3.38 2.48v3.15h-24.94c-.7-1.65-1.18-3.2-1.45-4.65-.27-1.45-.48-3.1-.64-4.95-3.17 3.2-6.81 5.93-10.94 8.18-4.94 2.65-10.51 3.98-16.74 3.98-7.94 0-14.5-2.11-19.67-6.34-5.18-4.23-7.76-10.22-7.76-17.98 0-10.06 4.16-17.34 12.47-21.84 4.56-2.45 11.26-4.2 20.11-5.25l7.8-.9c4.24-.5 7.27-1.13 9.09-1.88 3.27-1.3 4.91-3.33 4.91-6.08 0-3.35-1.25-5.67-3.74-6.94-2.49-1.28-6.15-1.91-10.98-1.91-5.42 0-9.25 1.25-11.5 3.75-1.61 1.85-2.68 4.35-3.22 7.51h-22.13c.48-7.16 2.63-13.04 6.44-17.64Zm17.06 57.5c2.14 1.65 4.77 2.48 7.88 2.48 4.93 0 9.48-1.35 13.64-4.05 4.16-2.7 6.32-7.63 6.48-14.79v-7.96c-1.45.85-2.91 1.54-4.38 2.06-1.48.53-3.5 1.01-6.07 1.46l-5.15.9c-4.83.8-8.29 1.78-10.38 2.93-3.54 1.95-5.31 4.98-5.31 9.08 0 3.65 1.1 6.28 3.3 7.88ZM437.45 114c-7.24 0-13.06-1.35-17.46-4.05-2.63-1.6-5.47-4.4-8.53-8.41v10.28h-22.45V1.33h22.85v39.34c2.9-3.8 6.09-6.71 9.58-8.71 4.13-2.5 9.39-3.75 15.77-3.75 11.53 0 20.56 3.88 27.07 11.64 6.52 7.76 9.78 17.77 9.78 30.03s-3.22 23.25-9.65 31.6c-6.44 8.36-15.42 12.54-26.95 12.54ZM450 72.12c0-5.8-.8-10.61-2.41-14.41-3.06-7.21-8.69-10.81-16.9-10.81s-14.03 3.53-17.14 10.58c-1.61 3.75-2.41 8.61-2.41 14.56 0 7.01 1.66 12.81 4.99 17.42 3.33 4.6 8.39 6.91 15.21 6.91 5.9 0 10.49-2.23 13.76-6.68 3.27-4.45 4.91-10.31 4.91-17.57Zm116.91-31.76c7.4 8.66 11.1 18.89 11.1 30.7s-3.7 22.28-11.1 30.82c-7.4 8.53-18.64 12.8-33.71 12.8s-26.31-4.27-33.71-12.8c-7.4-8.53-11.1-18.8-11.1-30.82s3.7-22.04 11.1-30.7c7.4-8.66 18.64-12.99 33.71-12.99s26.31 4.33 33.71 12.99Zm-33.8 5.11c-6.71 0-11.87 2.21-15.49 6.64-3.62 4.43-5.43 10.75-5.43 18.96s1.81 14.54 5.43 18.99c3.62 4.46 8.78 6.68 15.49 6.68s11.85-2.23 15.45-6.68c3.59-4.45 5.39-10.78 5.39-18.99s-1.8-14.53-5.39-18.96c-3.59-4.43-8.74-6.64-15.45-6.64Zm120.85 54.8c-.21.25-.75 1-1.61 2.25-.86 1.25-1.88 2.35-3.06 3.3-3.59 3-7.07 5.06-10.42 6.16-3.35 1.1-7.28 1.65-11.79 1.65-12.98 0-21.72-4.35-26.23-13.06-2.52-4.8-3.78-11.89-3.78-21.24V30h23.49v49.32c0 4.65.59 8.16 1.77 10.51 2.09 4.15 6.2 6.23 12.31 6.23 7.83 0 13.2-2.95 16.09-8.86 1.5-3.2 2.25-7.43 2.25-12.69V30h23.25v81.83h-22.29v-11.56Zm87.86-3.68v15.99l-10.86.38c-10.84.35-18.24-1.4-22.21-5.25-2.57-2.45-3.86-6.23-3.86-11.34V46h-12.23V30.76h12.23V7.93h22.69v22.82h14.24v15.24h-14.24v43.24c0 3.35.46 5.44 1.37 6.27.91.83 3.7 1.24 8.37 1.24.7 0 1.43-.01 2.21-.04.78-.02 1.54-.06 2.29-.11Zm107.24 0v15.99l-10.86.38c-10.84.35-18.24-1.4-22.21-5.25-2.57-2.45-3.86-6.23-3.86-11.34V46H799.9V30.76h12.23V7.93h22.69v22.82h14.24v15.24h-14.24v43.24c0 3.35.46 5.44 1.37 6.27.91.83 3.7 1.24 8.37 1.24.7 0 1.43-.01 2.21-.04.78-.02 1.54-.06 2.29-.11ZM890.66.5v19.74h-23.25V.5h23.25Zm0 29.5v81.83h-23.25V30h23.25Zm74.74 22.52c-1.93-3.95-5.71-5.93-11.34-5.93-6.54 0-10.94 1.98-13.2 5.93-1.23 2.25-1.85 5.61-1.85 10.06v49.25h-23.25V30.15h22.29v11.94c2.84-4.25 5.52-7.28 8.05-9.08 4.45-3.2 10.22-4.8 17.3-4.8 6.71 0 12.12 1.38 16.25 4.13 3.33 2.55 5.85 5.83 7.56 9.83 3-4.8 6.73-8.33 11.18-10.58 4.72-2.25 9.98-3.38 15.77-3.38 3.86 0 7.67.7 11.43 2.1 3.75 1.4 7.16 3.85 10.22 7.36 2.47 2.85 4.13 6.36 4.99 10.51.54 2.75.8 6.78.8 12.09l-.16 51.57h-23.49v-52.1c0-3.1-.54-5.65-1.61-7.66-2.04-3.8-5.79-5.71-11.26-5.71-6.33 0-10.7 2.45-13.11 7.36-1.23 2.6-1.85 5.73-1.85 9.38v48.72h-23.09V63.11c0-4.85-.54-8.38-1.61-10.58Zm175.64 35.29c-.59 4.85-3.3 9.78-8.13 14.79-7.51 7.96-18.02 11.94-31.54 11.94-11.16 0-21-3.35-29.53-10.06-8.53-6.71-12.79-17.62-12.79-32.73 0-14.16 3.85-25.02 11.55-32.58 7.7-7.56 17.69-11.34 29.97-11.34 7.29 0 13.87 1.28 19.71 3.83 5.85 2.55 10.67 6.58 14.48 12.09 3.43 4.85 5.66 10.48 6.68 16.89.59 3.75.83 9.16.72 16.21h-60.02c.32 8.21 3.08 13.96 8.29 17.27 3.16 2.05 6.97 3.08 11.43 3.08 4.72 0 8.55-1.25 11.5-3.75 1.61-1.35 3.03-3.23 4.26-5.63h23.41Zm-22.69-25.08c-.38-5.65-2.21-9.95-5.51-12.87s-7.39-4.39-12.27-4.39c-5.31 0-9.43 1.55-12.35 4.65-2.92 3.1-4.76 7.31-5.51 12.61h35.64Z" style="fill:none;stroke:#fff;stroke-miterlimit:10"/>
  </g>
</svg>
