<svg xmlns="http://www.w3.org/2000/svg" viewBox="0 0 1920 1080.32">
  <defs>
    <style>
      .cls-2{fill:none;stroke:#fff;stroke-miterlimit:10;stroke-width:2.34px}
    </style>
  </defs>
      <g style="mix-blend-mode:overlay;opacity:.17" id="BACKGROUND">
        <path class="cls-2" d="M1918.44.16c.6 360-.7 720 0 1080M1865.19.16c1.91 51.92-1.38 103.54-4.25 155.36-2.39 43.06-1.35 85.9-2.34 128.95-1.97 85.38 9.89 170.41 6.57 255.82-3.15 81.02 9.21 161.37 7.77 242.32-.81 45.86-.04 91.48-2.82 137.33-3.23 53.41-7.32 106.68-4.93 160.21M1811.95.16c1.92 51.08-6.31 100.47-13.97 150.77-6.44 42.3-7.59 83.61-8 126.27-.84 88.36 25.35 174.56 21.95 263.11-3.03 78.94 25.01 153.59 25.49 232.06.3 47.6-2.16 93.92-9.25 141.05-8.33 55.37-18.78 110.5-16.22 166.74"/>
        <path class="cls-2" d="M1758.7.16c.71 50.52-13.71 96.36-27.61 144.33-11.77 40.62-17.22 80.16-16.03 122.48 2.62 92.86 44.67 179.89 43.62 273.28-.87 77.48 45.67 141.75 50.34 217.75 6.83 111-52.16 212.07-50.33 322.15"/>
        <path class="cls-2" d="M1705.45.16c-2.29 91.64-76.38 161.26-69.06 254.82 7.71 98.43 65.83 185.78 69.06 285.18 2.52 77.75 68.99 126.6 79.44 201.02 7.28 51.84-11.84 104.26-28.84 152.37-21.38 60.49-48.77 121.58-50.6 186.6"/>
        <path class="cls-2" d="M1652.21.16c-6.46 91.33-108.04 147.35-95.69 242.24 13.6 104.46 87.02 191.74 95.7 297.64 6.56 79.96 92.65 109.6 109.92 183.52 12.29 52.58-19.17 112.1-39.91 158.76-28.08 63.18-64.7 127.7-70.03 197.83"/>
        <path class="cls-2" d="M1598.96.16c-5.89 52.36-42.33 84.64-76.22 121.38-28.03 30.4-52.36 65.6-44.78 108.91 19.32 110.38 106.8 197.26 121.02 309.5 10.56 83.32 114.66 92.83 138.89 166.86 17.16 52.4-27.22 120.3-50.43 164.84-34.22 65.66-79.81 133.49-88.49 208.5"/>
        <path class="cls-2" d="M1545.71.16c-7.45 53.76-51.27 82.2-89.71 115.01-31.7 27.06-61.9 60.47-52.72 105.16 23.75 115.62 124.24 201.68 142.47 319.57 13.46 87 133.49 78.22 163.49 152.7 9.07 22.52 1.31 45.66-6.94 67.38-13.62 35.87-33.18 69.54-52.42 102.62-39.29 67.56-93.17 138.39-104.17 217.56"/>
        <path class="cls-2" d="M1492.47.16c-12.81 94.12-179.62 109.87-157.48 213.07 13.49 62.89 56.68 119.93 89.53 173.84 29.31 48.1 59.32 96.47 67.99 152.86 13.96 90.77 147.81 67.09 180.84 142.65 9.79 22.4 1.21 46.24-7.52 67.72-15.14 37.26-36.91 71.92-58.14 105.93-42.7 68.4-103.99 141.88-115.21 223.94"/>
        <path class="cls-2" d="M1439.22.16c-9.52 99.44-184.94 100.93-163.57 210.2 12.49 63.89 59.51 122.09 93.61 175.76 30.24 47.59 63.48 96.81 69.98 153.93 10.76 94.68 156.08 60.64 188.04 138.4 9.1 22.14 1.22 46.57-7.39 67.65-15.54 38.03-38.62 73.15-60.88 107.49-26.18 40.39-53.99 79.89-78.24 121.5-19.23 32.99-37.71 66.52-41.55 105.07"/>
        <path class="cls-2" d="M1385.97.16c-11.19 96.9-182.21 106.6-160.55 212.88 24.52 120.33 145.53 203.16 160.5 326.82 11.3 93.38 156.87 68.87 189.1 146.8 9.09 21.98 1.23 46.84-7.38 67.77-15.31 37.23-38.69 71.27-61.25 104.38-44.84 65.8-112.95 138.87-120.41 221.34"/>
        <path class="cls-2" d="M1332.73.16c-11.16 96-174.21 114.84-153.35 219.28 23.48 117.59 138.67 199.67 153.28 320.39 11.55 95.38 158.78 84.57 191.41 166.02 21.97 54.82-39.59 125.03-69.47 165.19-45.73 61.48-114.68 129.22-121.88 209.12"/>
        <path class="cls-2" d="M1279.48.16c-9.94 96.32-162.48 124.82-143.17 228.32 21.26 113.95 129.61 194.65 143.13 311.42 11.59 100.06 161.4 105.43 194.63 192.95 20.9 55.04-38.61 117.26-70.64 155.39-46.47 55.3-116.65 115.92-123.95 191.91"/>
        <path class="cls-2" d="M1226.23.16c-8.04 97.34-148.49 135.78-131.2 238.95 18.38 109.72 119.2 188.74 131.22 300.94 5.32 49.64 49.03 82.08 85.65 111.08 38.79 30.73 95.19 64.27 112.74 113.42 19.73 55.26-37.38 108.5-72.03 143.89-46.96 47.97-118.77 100.25-126.37 171.72"/>
        <path class="cls-2" d="M1172.99.16c-5.93 98.58-133.68 146.92-118.64 250.11 15.33 105.22 108.32 182.58 118.72 289.95 5.13 52.97 50.62 91.78 87.39 125.88 40.06 37.17 96.74 77.67 114.93 131.69 18.68 55.47-35.97 99.86-73.48 131.82-47.15 40.18-120.93 83.52-128.92 150.55"/>
        <path class="cls-2" d="M1119.74.16c-4.09 99.7-119.59 157.42-106.69 260.72 12.59 100.85 97.84 176.77 106.82 279.47 4.92 56.24 52.23 101.14 89.04 139.93 41.11 43.32 98.16 90.3 117.03 149.15 17.88 55.77-34.52 92.29-74.86 120.34-47.05 32.71-123 67.1-131.34 130.39"/>
        <path class="cls-2" d="M1066.49.16c-2.98 100.46-107.86 166.43-96.55 269.74 10.63 97.01 88.68 171.9 96.7 270.54 4.8 59 53.72 109.08 90.44 151.72 41.85 48.61 99.3 101.13 118.84 164.19 17.39 56.14-33.24 86.55-76.03 110.57-46.88 26.32-124.88 52.43-133.4 113.24"/>
        <path class="cls-2" d="M1013.25.16c-3.06 100.6-100.16 173.17-89.4 276.09 9.84 94.17 81.78 168.55 89.54 264.15 4.93 60.79 54.96 114.45 91.41 159.77 42.23 52.5 100.04 109.13 120.16 175.23 37.01 121.54-197.3 101.38-211.72 204.77"/>
        <path class="cls-2" d="M960 .16c-4.82 99.52-98.06 177.17-86.45 278.71 10.6 92.74 78.09 167.28 86.52 261.34 5.48 61.13 55.86 116.15 91.8 162.57 42.15 54.44 100.2 113.28 120.81 180.64 37.84 123.64-199.4 91.83-212.68 196.73"/>
        <path class="cls-2" d="M906.75.16c-4.89 99.52-97.98 177.48-86.34 279.01 10.62 92.64 77.78 167.17 86.43 261.11 5.61 60.93 55.13 114.99 91.3 161.03 42.02 53.49 99.38 111.05 119.83 177.61 37.39 121.67-196.81 97.88-211.22 201.23"/>
        <path class="cls-2" d="M853.51.16c-4.9 99.66-97.71 178.11-86.07 279.75 10.58 92.39 77.53 166.7 86.17 260.39 5.51 59.75 53.84 111.86 89.84 156.53 41.43 51.42 97.9 106.74 117.83 171.43 36.97 120.03-193.28 108.53-207.76 211.89"/>
        <path class="cls-2" d="M800.26.16c-4.87 99.9-97.31 178.96-85.69 280.79 10.5 92.03 77.33 165.97 85.78 259.32 5.24 57.9 52.13 107.3 87.69 149.92 40.52 48.56 95.95 100.93 115.09 163.01 36.63 118.8-189.1 122.48-202.88 226.96"/>
        <path class="cls-2" d="M747.01.16c-4.81 100.19-96.83 179.93-85.24 282.02 10.4 91.61 77.15 165.08 85.32 258.03 4.89 55.66 50.17 101.9 85.13 142.03 39.4 45.22 93.71 94.19 111.92 153.23 16.93 54.88-31.19 90.65-71.56 118.14-46.96 31.97-118.07 63.5-125.56 126.54"/>
        <path class="cls-2" d="M693.77.16c-4.73 100.51-96.32 180.95-84.77 283.31 10.28 91.17 77 164.14 84.83 256.68 4.51 53.32 48.1 96.22 82.43 133.72 38.21 41.73 91.35 87.11 108.6 143 16.83 54.53-30.93 94.53-69.37 124.89-46.46 36.68-114.91 73.61-121.72 138.4"/>
        <path class="cls-2" d="M640.52.16c-4.67 100.81-95.84 181.92-84.33 284.54 10.18 90.74 76.86 163.26 84.36 255.39 4.17 51.15 46.09 90.84 79.87 125.81 37.08 38.39 89.07 80.29 105.43 133.21 16.79 54.33-30.72 98.41-67.28 131.33-45.71 41.16-111.83 83.17-118.05 149.71"/>
        <path class="cls-2" d="M587.27.16c-4.63 101.06-95.44 182.76-83.95 285.59 10.1 90.38 76.68 162.52 83.97 254.31 3.92 49.41 44.28 86.33 77.72 119.17 36.16 35.52 87.06 74.3 102.69 124.76 16.79 54.22-30.61 101.8-65.5 136.82-44.78 44.94-109.03 91.38-114.92 159.34"/>
        <path class="cls-2" d="M534.03.16c-4.64 101.21-95.17 183.38-83.68 286.33 10.06 90.14 76.43 162.04 83.7 253.59 8.24 103.71 147.58 138.81 176.91 233.18 16.83 54.14-30.67 104.21-64.24 140.72-43.77 47.62-106.72 97.45-112.7 166.18"/>
        <path class="cls-2" d="M480.78.16c-4.72 101.21-95.08 183.7-83.56 286.64 10.08 90.04 76.08 161.93 83.61 253.35 8.5 103.12 146.18 135.01 175.4 228.51 16.88 53.99-30.99 105.12-63.69 142.4-42.8 48.79-105.08 100.63-111.75 169.11"/>
        <path class="cls-2" d="M427.53.16c-6.49 99.32-92.89 185.86-80.45 286.67 5.74 46.49 27.26 89.56 45.73 132 17.39 39.96 30.01 77.95 34.83 121.31 11.15 100.42 138.3 137.67 168.63 229.21 17.36 52.4-30.27 104.87-61.26 142.14-41.52 49.94-98.29 101.28-107.49 168.67"/>
        <path class="cls-2" d="M374.29.16c-3.7 55.61-25.98 105.61-45.83 156.94-15.77 40.78-32.15 85.35-26.93 129.8 10.35 88.18 62.95 164.35 72.89 253.23 10.86 97.12 124.61 141.22 152.44 230.92 15.88 51.18-26.48 103.12-55.38 141.53-38.29 50.89-88.09 102.09-97.18 167.58"/>
        <path class="cls-2" d="M321.04.16C315.7 97.91 249.53 188.34 259.23 287c8.57 87.18 53.84 165.4 61.91 253.14 8.6 93.5 106.64 145.43 129.51 233.32 13.06 50.2-20.93 100.37-47.05 140.65-33.52 51.69-75.34 102.94-82.56 166.05"/>
        <path class="cls-2" d="M267.79.16c-3.41 97.49-55.89 188.85-48.88 286.96 6.17 86.26 43.74 166.32 48.94 253.03 5.39 89.82 85.89 150.08 102.51 236.16 9.52 49.29-14.87 97.19-37.23 139.62-27.6 52.36-60.89 103.77-65.33 164.23"/>
        <path class="cls-2" d="M214.55.16c-1.22 97.06-39.36 189.66-35.28 287.09 3.58 85.46 33.23 167.14 35.28 252.91 2.06 86.52 63.92 154.77 74.12 239.14 12.93 106.95-71.31 195.66-74.12 300.86"/>
        <path class="cls-2" d="M161.3.16c.7 96.41-23.72 190.62-22.29 287.21 1.26 84.83 22.94 167.8 22.24 252.8-.69 84.05 42.46 158.94 47.01 241.98 5.65 103.25-48.53 195.77-46.96 298.01M108.05.16c1.87 95.83-10.77 191.41-11.22 287.31-.4 84.41 13.54 168.24 11.15 252.7-2.35 82.67 23.4 162.09 23.84 244.42.24 46.08-1.73 90.98-8.63 136.61-8.01 52.92-17.37 105.2-15.13 158.96M54.81.16c1.83 95.66-2.25 191.71-3.37 287.38-.98 84.23 5.72 168.41 3.3 252.63-2.36 82.26 8.68 163.97 7.3 246.16-.76 45.4 0 90.59-2.63 135.98-3.06 52.64-6.75 105.09-4.6 157.85M1.56.16c.31 360-.65 720 0 1080"/>
      </g>
</svg>
