<svg data-name="Layer 2" xmlns="http://www.w3.org/2000/svg" viewBox="0 0 1143.33 144.53">
  <g style="opacity:.75">
    <path d="M105.18 111.83H73.32L36.71 63.49 24.88 74.83v37.01H.5V1.18h24.38v45.57L70.66 1.18h32.02l-48.6 45.57 51.09 65.08Zm90.43-24.02c-.59 4.85-3.3 9.78-8.13 14.79-7.51 7.96-18.02 11.94-31.54 11.94-11.16 0-21-3.35-29.53-10.06-8.53-6.71-12.79-17.62-12.79-32.73 0-14.16 3.85-25.02 11.55-32.58 7.7-7.56 17.69-11.34 29.97-11.34 7.29 0 13.87 1.28 19.71 3.83 5.85 2.55 10.67 6.58 14.48 12.09 3.43 4.85 5.66 10.48 6.68 16.89.59 3.75.83 9.16.72 16.21h-60.02c.32 8.21 3.08 13.96 8.29 17.27 3.16 2.05 6.97 3.08 11.43 3.08 4.72 0 8.56-1.25 11.51-3.75 1.61-1.35 3.03-3.23 4.26-5.63h23.41Zm-22.69-25.08c-.38-5.65-2.21-9.95-5.51-12.87-3.3-2.93-7.39-4.39-12.27-4.39-5.31 0-9.43 1.55-12.35 4.65-2.92 3.1-4.76 7.31-5.51 12.61h35.64Zm117.63 25.08c-.59 4.85-3.3 9.78-8.13 14.79-7.51 7.96-18.02 11.94-31.54 11.94-11.16 0-21-3.35-29.53-10.06-8.53-6.71-12.79-17.62-12.79-32.73 0-14.16 3.85-25.02 11.55-32.58 7.7-7.56 17.69-11.34 29.97-11.34 7.29 0 13.87 1.28 19.71 3.83 5.85 2.55 10.67 6.58 14.48 12.09 3.43 4.85 5.66 10.48 6.68 16.89.59 3.75.83 9.16.72 16.21h-60.02c.32 8.21 3.08 13.96 8.29 17.27 3.16 2.05 6.97 3.08 11.43 3.08 4.72 0 8.56-1.25 11.51-3.75 1.61-1.35 3.03-3.23 4.26-5.63h23.41Zm-22.69-25.08c-.38-5.65-2.21-9.95-5.51-12.87-3.3-2.93-7.39-4.39-12.27-4.39-5.31 0-9.43 1.55-12.35 4.65-2.92 3.1-4.76 7.31-5.51 12.61h35.64Zm116.02-23.94c7.08 7.06 10.62 17.42 10.62 31.08 0 14.41-3.47 25.4-10.42 32.96-6.95 7.56-15.89 11.34-26.83 11.34-6.97 0-12.77-1.63-17.38-4.88-2.52-1.8-4.99-4.43-7.4-7.88v42.64h-22.69V30h21.97v12.09c2.47-3.55 5.1-6.35 7.88-8.41 5.1-3.65 11.16-5.48 18.18-5.48 10.24 0 18.93 3.53 26.07 10.58Zm-13.04 32.12c0-6.31-1.54-11.89-4.63-16.74-3.08-4.85-8.09-7.28-15.01-7.28-8.31 0-14.03 3.68-17.14 11.04-1.61 3.9-2.41 8.86-2.41 14.86 0 9.51 2.71 16.19 8.13 20.04 3.22 2.25 7.03 3.38 11.43 3.38 6.38 0 11.25-2.3 14.6-6.91 3.35-4.6 5.03-10.73 5.03-18.39ZM487.02.5v19.74h-23.25V.5h23.25Zm0 29.5v81.83h-23.25V30h23.25Zm65.65 66.59v15.99l-10.86.38c-10.84.35-18.24-1.4-22.21-5.25-2.57-2.45-3.86-6.23-3.86-11.34V46h-12.23V30.76h12.23V7.93h22.69v22.82h14.24v15.24h-14.24v43.24c0 3.35.46 5.44 1.37 6.27.91.83 3.7 1.24 8.37 1.24.7 0 1.43-.01 2.21-.04.78-.02 1.54-.06 2.29-.11Zm127.52-62.83c6.87 4.1 10.81 11.16 11.83 21.17h-22.93c-.32-2.75-1.15-4.93-2.49-6.53-2.52-2.9-6.81-4.35-12.88-4.35-4.99 0-8.54.73-10.66 2.18-2.12 1.45-3.18 3.15-3.18 5.1 0 2.45 1.13 4.23 3.38 5.33 2.25 1.15 10.22 3.13 23.9 5.93 9.12 2 15.96 5.03 20.52 9.08 4.5 4.1 6.76 9.23 6.76 15.39 0 8.11-3.23 14.73-9.7 19.86-6.46 5.13-16.45 7.69-29.97 7.69s-23.96-2.72-30.53-8.14c-6.57-5.43-9.86-12.35-9.86-20.76h23.25c.48 3.8 1.53 6.51 3.14 8.11 2.84 2.85 8.1 4.28 15.77 4.28 4.51 0 8.09-.62 10.74-1.88 2.65-1.25 3.98-3.13 3.98-5.63s-1.07-4.23-3.22-5.48c-2.15-1.25-10.11-3.4-23.9-6.46-9.92-2.3-16.92-5.18-21-8.63-4.08-3.4-6.11-8.31-6.11-14.71 0-7.56 3.18-14.05 9.53-19.48 6.36-5.43 15.3-8.15 26.83-8.15s19.87 2.03 26.79 6.08ZM738.28.5v19.74h-23.25V.5h23.25Zm0 29.5v81.83h-23.25V30h23.25Zm74.74 22.52c-1.93-3.95-5.71-5.93-11.34-5.93-6.54 0-10.94 1.98-13.2 5.93-1.23 2.25-1.85 5.61-1.85 10.06v49.25h-23.25V30.15h22.29v11.94c2.84-4.25 5.52-7.28 8.05-9.08 4.45-3.2 10.22-4.8 17.3-4.8 6.71 0 12.12 1.38 16.25 4.13 3.33 2.55 5.85 5.83 7.56 9.83 3-4.8 6.73-8.33 11.18-10.58 4.72-2.25 9.98-3.38 15.77-3.38 3.86 0 7.67.7 11.43 2.1 3.75 1.4 7.16 3.85 10.22 7.36 2.47 2.85 4.13 6.36 4.99 10.51.54 2.75.8 6.78.8 12.09l-.16 51.57h-23.49v-52.1c0-3.1-.54-5.65-1.61-7.66-2.04-3.8-5.79-5.71-11.26-5.71-6.33 0-10.7 2.45-13.11 7.36-1.23 2.6-1.85 5.73-1.85 9.38v48.72h-23.09V63.11c0-4.85-.54-8.38-1.61-10.58Zm174.03-13.73c7.08 7.06 10.62 17.42 10.62 31.08 0 14.41-3.47 25.4-10.42 32.96-6.95 7.56-15.89 11.34-26.83 11.34-6.97 0-12.77-1.63-17.38-4.88-2.52-1.8-4.99-4.43-7.4-7.88v42.64h-22.69V30h21.96v12.09c2.47-3.55 5.1-6.35 7.88-8.41 5.1-3.65 11.16-5.48 18.18-5.48 10.25 0 18.93 3.53 26.07 10.58Zm-13.04 32.12c0-6.31-1.54-11.89-4.63-16.74-3.08-4.85-8.09-7.28-15.01-7.28-8.31 0-14.03 3.68-17.14 11.04-1.61 3.9-2.41 8.86-2.41 14.86 0 9.51 2.71 16.19 8.13 20.04 3.22 2.25 7.03 3.38 11.42 3.38 6.38 0 11.25-2.3 14.6-6.91 3.35-4.6 5.03-10.73 5.03-18.39Zm44.01-69.73h22.93v110.65h-22.93V1.18Zm123.66 86.63c-.59 4.85-3.3 9.78-8.13 14.79-7.51 7.96-18.02 11.94-31.54 11.94-11.16 0-21-3.35-29.53-10.06-8.53-6.71-12.79-17.62-12.79-32.73 0-14.16 3.85-25.02 11.55-32.58 7.7-7.56 17.69-11.34 29.97-11.34 7.29 0 13.87 1.28 19.71 3.83 5.85 2.55 10.67 6.58 14.48 12.09 3.43 4.85 5.66 10.48 6.68 16.89.59 3.75.83 9.16.72 16.21h-60.02c.32 8.21 3.08 13.96 8.29 17.27 3.16 2.05 6.97 3.08 11.43 3.08 4.72 0 8.55-1.25 11.5-3.75 1.61-1.35 3.03-3.23 4.26-5.63h23.41Zm-22.69-25.08c-.38-5.65-2.21-9.95-5.51-12.87s-7.39-4.39-12.27-4.39c-5.31 0-9.43 1.55-12.35 4.65-2.92 3.1-4.76 7.31-5.51 12.61h35.64Z" style="fill:none;stroke:#fff;stroke-miterlimit:10"/>
  </g>
</svg>
