<svg id="Layer_2" data-name="Layer 2" xmlns="http://www.w3.org/2000/svg" viewBox="0 0 509.22 200">
  <defs>
    <style>
      .cls-1{opacity:.8}.cls-2{fill:#fff;stroke-width:0}
    </style>
  </defs>
  <g id="TEXTS">
    <g class="cls-1">
      <path class="cls-2" d="M130.51 64.76c0 2.65.7 4.79 2.1 6.42 1.4 1.63 3.43 2.44 6.08 2.44 2.42 0 4.35-.61 5.79-1.82 1.44-1.21 2.16-3.03 2.16-5.45 0-1.97-.57-3.46-1.71-4.49a13.15 13.15 0 0 0-3.98-2.44l-11.02-3.98c-4.32-1.51-7.58-3.65-9.77-6.42-2.2-2.76-3.29-6.31-3.29-10.62 0-2.5.42-4.87 1.25-7.1.83-2.23 2.16-4.18 3.98-5.85 1.82-1.67 4.15-2.99 6.99-3.98 2.84-.98 6.27-1.48 10.28-1.48 7.12 0 12.38 1.52 15.79 4.54 3.41 3.03 5.11 7.31 5.11 12.84v2.5h-14.09c0-3.18-.51-5.51-1.53-6.99-1.02-1.48-2.82-2.22-5.4-2.22-1.97 0-3.69.55-5.17 1.65-1.48 1.1-2.21 2.75-2.21 4.94 0 1.52.47 2.88 1.42 4.09s2.74 2.23 5.4 3.07l9.43 3.18c4.92 1.67 8.41 3.85 10.45 6.53 2.05 2.69 3.07 6.34 3.07 10.96 0 3.26-.57 6.08-1.7 8.46-1.14 2.39-2.71 4.37-4.72 5.96-2.01 1.59-4.39 2.73-7.16 3.41-2.77.68-5.81 1.02-9.15 1.02-4.39 0-8.05-.42-10.96-1.25-2.92-.83-5.23-2.08-6.93-3.75-1.7-1.67-2.9-3.69-3.58-6.08-.68-2.39-1.02-5.06-1.02-8.01v-2.16h14.09v2.04ZM185.73.68v13.41h-15.68V.68h15.68Zm0 20.91v61.12h-15.68V21.59h15.68Zm26.01 0v6.25h.23c1.97-2.8 4.18-4.81 6.65-6.02 2.46-1.21 5.4-1.82 8.8-1.82 3.63 0 6.68.83 9.15 2.5 2.46 1.67 4.11 4.09 4.94 7.27h.23c1.21-3.26 3.16-5.7 5.85-7.33 2.69-1.63 5.89-2.44 9.6-2.44 5.23 0 9.07 1.57 11.53 4.72 2.46 3.14 3.69 7.67 3.69 13.58v44.42h-15.68V40c0-2.57-.47-4.54-1.42-5.91-.95-1.36-2.52-2.05-4.71-2.05-2.5 0-4.49.83-5.96 2.5-1.48 1.67-2.22 4.32-2.22 7.95v40.22h-15.68V39.99c0-2.57-.47-4.54-1.42-5.91-.95-1.36-2.52-2.05-4.71-2.05-2.5 0-4.49.83-5.96 2.5-1.48 1.67-2.22 4.32-2.22 7.95V82.7h-15.68V21.59h15Zm86.12 0v6.48h.23c1.74-2.88 3.69-4.94 5.85-6.19 2.16-1.25 4.83-1.88 8.01-1.88 6.44 0 11.17 2.52 14.2 7.56 3.03 5.04 4.54 13.24 4.54 24.6s-1.52 19.5-4.54 24.43c-3.03 4.92-7.76 7.38-14.2 7.38-2.95 0-5.47-.55-7.55-1.65-2.08-1.1-3.96-2.86-5.62-5.28h-.23v25.34h-15.68V21.59h15Zm2.22 45.61c1.02 3.37 3.28 5.06 6.76 5.06s5.62-1.69 6.65-5.06c1.02-3.37 1.53-8.39 1.53-15.05s-.51-11.68-1.53-15.05c-1.02-3.37-3.24-5.06-6.65-5.06s-5.74 1.69-6.76 5.06c-1.02 3.37-1.53 8.39-1.53 15.05s.51 11.68 1.53 15.05Zm55.84-65.61v81.12h-15.68V1.59h15.68Zm27.26-.91v13.41H367.5V.68h15.68Zm0 20.91v61.12H367.5V21.59h15.68Zm6.48 10.68V21.59h7.95v-6.93c0-2.73.38-5.04 1.13-6.93.76-1.89 1.84-3.41 3.24-4.54 1.4-1.14 3.12-1.95 5.17-2.44 2.04-.49 4.32-.74 6.82-.74 2.8 0 5.6.11 8.41.34v11.13c-.38-.07-.91-.11-1.59-.11h-1.48c-2.2 0-3.75.38-4.66 1.14-.91.76-1.36 2.01-1.36 3.75v5.34h9.09v10.68h-9.09v50.44h-15.68V32.28h-7.95ZM431.92 91c2.88 0 4.94-.76 6.19-2.27 1.25-1.52 1.99-3.52 2.21-6.02l-17.16-61.12h16.36l9.09 42.26h.23l7.95-42.26h15.68L457.7 78.62c-1.36 5.07-2.67 9.18-3.92 12.33-1.25 3.14-2.73 5.57-4.43 7.27-1.7 1.7-3.75 2.82-6.14 3.35-2.38.53-5.4.79-9.03.79h-6.36v-11.7c1.36.23 2.73.34 4.09.34Z"/>
    </g>
    <g class="cls-1">
      <path class="cls-2" d="M23.88 3.7v17.68h9.19v10.79h-9.19v33.42c0 2.45.36 4.19 1.09 5.22.73 1.03 2.24 1.55 4.54 1.55.61 0 1.22-.02 1.84-.06.61-.04 1.19-.1 1.72-.17v11.02c-1.76 0-3.46.06-5.11.17-1.65.11-3.39.17-5.22.17-3.06 0-5.57-.21-7.52-.63s-3.45-1.26-4.48-2.53-1.74-2.93-2.12-5c-.38-2.07-.57-4.67-.57-7.81V32.15H0V21.36h8.04V3.7h15.85Zm13.9 34.56c.84-4.06 2.22-7.44 4.13-10.16 1.91-2.72 4.42-4.78 7.52-6.2 3.1-1.42 6.91-2.12 11.43-2.12 4.75-.08 8.69.56 11.83 1.89 3.14 1.34 5.63 3.39 7.46 6.14 1.84 2.76 3.14 6.16 3.9 10.22.76 4.06 1.15 8.8 1.15 14.24s-.42 9.95-1.26 14.01c-.84 4.06-2.22 7.45-4.13 10.16-1.91 2.72-4.42 4.73-7.52 6.03-3.1 1.3-6.91 1.95-11.43 1.95-4.75.08-8.69-.52-11.83-1.78-3.14-1.26-5.63-3.25-7.46-5.97-1.84-2.72-3.14-6.12-3.9-10.22-.77-4.09-1.15-8.82-1.15-14.18s.42-9.95 1.26-14.01ZM52.59 61c.15 2.68.52 4.98 1.09 6.89.57 1.91 1.43 3.41 2.58 4.48 1.15 1.07 2.68 1.61 4.59 1.61 3.21 0 5.43-1.68 6.66-5.05 1.22-3.37 1.84-8.92 1.84-16.65S68.74 39 67.51 35.63c-1.23-3.37-3.45-5.05-6.66-5.05-1.92 0-3.45.54-4.59 1.61-1.15 1.07-2.01 2.57-2.58 4.48-.57 1.91-.94 4.21-1.09 6.89-.15 2.68-.23 5.59-.23 8.73s.08 6.05.23 8.73Z"/>
    </g>
    <g class="cls-1">
      <path class="cls-2" d="M99.07 147.91h.23l11.6-32.01H129l-21.46 50.23v32.59h-16.7v-32.59L69.38 115.9h18.79l10.9 32.01Zm26.1 5.45c.85-4.1 2.24-7.52 4.18-10.27 1.93-2.74 4.47-4.83 7.6-6.26 3.13-1.43 6.98-2.15 11.54-2.15 4.79-.08 8.78.56 11.95 1.91 3.17 1.35 5.68 3.42 7.54 6.21 1.86 2.78 3.17 6.23 3.94 10.32.77 4.1 1.16 8.89 1.16 14.38s-.43 10.05-1.28 14.15c-.85 4.1-2.24 7.52-4.18 10.26-1.93 2.75-4.47 4.78-7.6 6.09-3.13 1.31-6.98 1.97-11.54 1.97-4.8.08-8.78-.52-11.95-1.8s-5.68-3.29-7.54-6.03c-1.86-2.74-3.17-6.19-3.94-10.32-.77-4.14-1.16-8.91-1.16-14.33s.42-10.05 1.28-14.15Zm14.96 22.97c.15 2.71.52 5.03 1.1 6.96.58 1.93 1.45 3.44 2.61 4.52 1.16 1.08 2.71 1.62 4.64 1.62 3.25 0 5.49-1.7 6.73-5.1 1.24-3.4 1.86-9.01 1.86-16.82s-.62-13.42-1.86-16.82c-1.24-3.4-3.48-5.1-6.73-5.1-1.93 0-3.48.54-4.64 1.62-1.16 1.08-2.03 2.59-2.61 4.52-.58 1.93-.95 4.25-1.1 6.96-.16 2.71-.23 5.65-.23 8.81s.08 6.11.23 8.82Zm73.31 15.08c-1.7 3.09-3.91 5.3-6.61 6.61-2.71 1.31-5.8 1.97-9.28 1.97-5.1 0-9.03-1.33-11.77-4-2.75-2.67-4.12-7.13-4.12-13.4v-46.28h16.01v43.03c0 3.25.54 5.51 1.62 6.79 1.08 1.28 2.82 1.91 5.22 1.91 5.64 0 8.47-3.44 8.47-10.32v-41.41h16.01v62.41h-15.31v-7.31h-.23Zm41.53-55.1v8.35h.23c1.62-3.02 3.6-5.43 5.92-7.25 2.32-1.82 5.14-2.73 8.47-2.73.46 0 .95.02 1.45.06.5.04.99.1 1.45.17v15.31a55.84 55.84 0 0 0-4.98-.23c-1.39 0-2.78.19-4.18.58-1.39.39-2.67 1.03-3.83 1.91-1.16.89-2.09 2.05-2.78 3.48-.7 1.43-1.04 3.19-1.04 5.28v37.47h-16.01V136.3h15.31Zm79.8-20.41c5.8 0 10.48.95 14.04 2.84 3.56 1.9 6.32 4.6 8.29 8.12 1.97 3.52 3.31 7.75 4 12.7.7 4.95 1.04 10.48 1.04 16.59 0 7.27-.45 13.59-1.33 18.96-.89 5.38-2.42 9.8-4.58 13.28-2.17 3.48-5.07 6.07-8.7 7.77-3.64 1.7-8.24 2.55-13.8 2.55H307.4v-82.82h27.38Zm-3.25 70.52c2.94 0 5.3-.5 7.08-1.51 1.78-1 3.19-2.67 4.23-4.99 1.04-2.32 1.74-5.37 2.09-9.16.35-3.79.52-8.51.52-14.15 0-4.72-.16-8.85-.46-12.41-.31-3.56-.95-6.51-1.91-8.87-.97-2.36-2.4-4.14-4.29-5.34-1.9-1.2-4.43-1.8-7.6-1.8h-7.08v58.23h7.42Zm41.07-32.48c0-3.63.58-6.67 1.74-9.11 1.16-2.44 2.73-4.41 4.7-5.92 1.97-1.51 4.29-2.59 6.96-3.25 2.67-.66 5.51-.99 8.53-.99 4.79 0 8.66.46 11.6 1.39 2.94.93 5.22 2.24 6.84 3.94 1.62 1.7 2.73 3.73 3.31 6.09.58 2.36.87 4.93.87 7.71v32.83c0 2.94.13 5.22.41 6.84.27 1.62.79 3.36 1.57 5.22h-15.31c-.54-1-.95-2.07-1.22-3.19s-.52-2.22-.75-3.31h-.23c-1.86 3.25-4 5.36-6.44 6.32-2.44.97-5.59 1.45-9.45 1.45-2.78 0-5.14-.48-7.08-1.45-1.93-.97-3.48-2.3-4.64-4-1.16-1.7-2.01-3.61-2.55-5.74-.54-2.13-.81-4.23-.81-6.32 0-2.94.31-5.47.93-7.6.62-2.13 1.57-3.94 2.84-5.45 1.28-1.51 2.9-2.76 4.87-3.77 1.97-1 4.35-1.89 7.13-2.67l9.05-2.44c2.4-.62 4.06-1.47 4.99-2.55.93-1.08 1.39-2.67 1.39-4.76 0-2.4-.56-4.27-1.68-5.63-1.12-1.35-3.04-2.03-5.74-2.03-2.48 0-4.33.74-5.57 2.2-1.24 1.47-1.86 3.44-1.86 5.92v1.74h-14.38v-1.51Zm25.75 15.6c-1.24.5-2.36.87-3.36 1.1-3.25.7-5.57 1.86-6.96 3.48-1.39 1.62-2.09 3.83-2.09 6.61 0 2.4.46 4.45 1.39 6.15.93 1.7 2.47 2.55 4.64 2.55 1.08 0 2.2-.17 3.36-.52 1.16-.35 2.22-.91 3.19-1.68.97-.77 1.76-1.78 2.38-3.02.62-1.24.93-2.71.93-4.41v-12.3a14.2 14.2 0 0 1-3.48 2.03Zm49.64-51.09v17.86h9.28v10.9h-9.28v33.75c0 2.48.37 4.23 1.1 5.28.73 1.04 2.26 1.57 4.58 1.57.62 0 1.24-.02 1.86-.06.62-.04 1.2-.1 1.74-.17v11.14c-1.78 0-3.5.06-5.16.17-1.66.12-3.42.17-5.28.17-3.09 0-5.63-.21-7.6-.64s-3.48-1.28-4.52-2.55c-1.04-1.28-1.76-2.96-2.15-5.05-.39-2.09-.58-4.72-.58-7.89V147.2h-8.12v-10.9h8.12v-17.86h16.01Zm14.73 35.49c0-3.63.58-6.67 1.74-9.11 1.16-2.44 2.73-4.41 4.7-5.92 1.97-1.51 4.29-2.59 6.96-3.25 2.67-.66 5.51-.99 8.53-.99 4.79 0 8.66.46 11.6 1.39 2.94.93 5.22 2.24 6.84 3.94 1.62 1.7 2.73 3.73 3.31 6.09.58 2.36.87 4.93.87 7.71v32.83c0 2.94.13 5.22.41 6.84.27 1.62.79 3.36 1.57 5.22h-15.31c-.54-1-.95-2.07-1.22-3.19s-.52-2.22-.75-3.31h-.23c-1.86 3.25-4 5.36-6.44 6.32-2.44.97-5.59 1.45-9.45 1.45-2.78 0-5.14-.48-7.08-1.45-1.93-.97-3.48-2.3-4.64-4-1.16-1.7-2.01-3.61-2.55-5.74-.54-2.13-.81-4.23-.81-6.32 0-2.94.31-5.47.93-7.6.62-2.13 1.57-3.94 2.84-5.45 1.28-1.51 2.9-2.76 4.87-3.77 1.97-1 4.35-1.89 7.13-2.67l9.05-2.44c2.4-.62 4.06-1.47 4.99-2.55.93-1.08 1.39-2.67 1.39-4.76 0-2.4-.56-4.27-1.68-5.63-1.12-1.35-3.04-2.03-5.74-2.03-2.48 0-4.33.74-5.57 2.2-1.24 1.47-1.86 3.44-1.86 5.92v1.74h-14.38v-1.51Zm25.75 15.6c-1.24.5-2.36.87-3.36 1.1-3.25.7-5.57 1.86-6.96 3.48-1.39 1.62-2.09 3.83-2.09 6.61 0 2.4.46 4.45 1.39 6.15.93 1.7 2.47 2.55 4.64 2.55 1.08 0 2.2-.17 3.36-.52 1.16-.35 2.22-.91 3.19-1.68.97-.77 1.76-1.78 2.38-3.02.62-1.24.93-2.71.93-4.41v-12.3a14.2 14.2 0 0 1-3.48 2.03Z"/>
    </g>
  </g>
</svg>
