<?xml version="1.0" standalone="no"?>
<!DOCTYPE svg PUBLIC "-//W3C//DTD SVG 20010904//EN"
 "http://www.w3.org/TR/2001/REC-SVG-20010904/DTD/svg10.dtd">
<svg version="1.0" xmlns="http://www.w3.org/2000/svg"
 width="696.000000pt" height="696.000000pt" viewBox="0 0 696.000000 696.000000"
 preserveAspectRatio="xMidYMid meet">
<metadata>
Created by potrace 1.14, written by Peter Selinger 2001-2017
</metadata>
<g transform="translate(0.000000,696.000000) scale(0.100000,-0.100000)"
fill="#000000" stroke="none">
<path d="M0 3480 l0 -3280 3480 0 3480 0 0 3280 0 3280 -3480 0 -3480 0 0
-3280z m2160 2555 l-265 -265 -385 -2 -385 -3 -3 -385 -2 -385 -265 -265 -265
-265 0 918 0 917 917 0 918 0 -265 -265z m265 -440 c336 -50 550 -206 672
-487 81 -187 123 -448 123 -765 0 -106 2 -193 5 -193 3 0 31 13 63 29 76 38
168 67 277 87 116 21 356 22 485 0 368 -60 602 -273 666 -604 8 -41 14 -89 14
-108 l0 -34 -228 0 -228 0 -16 84 c-49 261 -216 387 -493 373 -326 -16 -490
-238 -536 -719 -18 -195 -7 -641 19 -788 52 -289 151 -453 319 -533 66 -31 71
-32 208 -32 114 0 149 4 190 19 163 62 265 194 298 384 l11 62 234 0 234 0 -6
-47 c-13 -89 -38 -168 -86 -269 -106 -220 -313 -373 -582 -430 -183 -38 -458
-36 -634 6 -363 86 -573 325 -658 750 -21 106 -34 254 -42 478 -4 105 -8 192
-9 192 -2 0 -28 -11 -58 -25 -31 -14 -100 -38 -154 -52 l-98 -27 -502 -4 -503
-3 0 1335 0 1336 458 0 c353 0 480 -3 557 -15z"/>
<path d="M2060 4269 l0 -861 108 3 c167 6 237 49 297 182 70 153 105 634 75
1027 -18 236 -54 355 -129 430 -61 61 -122 80 -252 80 l-99 0 0 -861z"/>
</g>
</svg>
