<svg data-name="Layer 2" xmlns="http://www.w3.org/2000/svg" viewBox="0 0 1256.39 342.45">
  <g style="opacity:.8">
    <path d="M23.63 147.04v17.5h9.09v10.68h-9.09v33.06c0 2.42.36 4.15 1.08 5.17.72 1.02 2.22 1.53 4.49 1.53.61 0 1.21-.02 1.82-.06.61-.04 1.17-.09 1.7-.17v10.91c-1.74 0-3.43.06-5.06.17-1.63.11-3.35.17-5.17.17-3.03 0-5.51-.21-7.44-.62-1.93-.42-3.41-1.25-4.43-2.5-1.02-1.25-1.72-2.9-2.1-4.94-.38-2.04-.57-4.62-.57-7.73v-34.99H0v-10.68h7.95v-17.5h15.68Zm30.22-2.5v26.24h.23c3.03-5.23 7.99-7.84 14.88-7.84 5 0 8.84 1.36 11.53 4.09 2.69 2.73 4.03 7.16 4.03 13.29v45.33H68.84V183.5c0-3.18-.53-5.4-1.59-6.65s-2.77-1.88-5.11-1.88c-5.53 0-8.29 3.37-8.29 10.11v40.56H38.17v-81.12h15.68Zm56.13 20v8.18h.23c1.59-2.95 3.52-5.32 5.79-7.1 2.27-1.78 5.04-2.67 8.29-2.67.45 0 .93.02 1.42.06.49.04.97.1 1.42.17v15c-.83-.07-1.65-.13-2.44-.17-.8-.04-1.61-.06-2.44-.06-1.36 0-2.73.19-4.09.57-1.36.38-2.61 1-3.75 1.88-1.14.87-2.04 2.01-2.73 3.41-.68 1.4-1.02 3.12-1.02 5.17v36.7H94.98v-61.12h15Zm22.04 16.7c.83-4.01 2.2-7.37 4.09-10.05 1.89-2.69 4.37-4.73 7.44-6.14 3.07-1.4 6.83-2.1 11.3-2.1 4.7-.07 8.6.55 11.7 1.88 3.1 1.33 5.57 3.35 7.38 6.08s3.1 6.1 3.86 10.11c.76 4.02 1.14 8.71 1.14 14.09s-.42 9.85-1.25 13.86c-.83 4.02-2.2 7.37-4.09 10.05-1.89 2.69-4.37 4.68-7.44 5.96-3.07 1.29-6.84 1.93-11.3 1.93-4.7.07-8.6-.51-11.7-1.76-3.11-1.25-5.57-3.22-7.38-5.91-1.82-2.69-3.11-6.06-3.86-10.11-.76-4.05-1.14-8.73-1.14-14.03s.42-9.85 1.25-13.86Zm14.65 22.49c.15 2.65.51 4.92 1.08 6.82.57 1.89 1.42 3.37 2.56 4.43 1.14 1.06 2.65 1.59 4.54 1.59 3.18 0 5.38-1.67 6.59-5s1.82-8.82 1.82-16.47-.61-13.14-1.82-16.47c-1.21-3.33-3.41-5-6.59-5-1.89 0-3.41.53-4.54 1.59-1.14 1.06-1.99 2.54-2.56 4.43-.57 1.89-.93 4.17-1.08 6.82-.15 2.65-.23 5.53-.23 8.63s.07 5.98.23 8.63Zm71.8 14.77c-1.67 3.03-3.83 5.19-6.48 6.48-2.65 1.29-5.68 1.93-9.09 1.93-5 0-8.84-1.31-11.53-3.92-2.69-2.61-4.03-6.99-4.03-13.12v-45.33h15.68v42.15c0 3.18.53 5.4 1.59 6.65s2.76 1.88 5.11 1.88c5.53 0 8.29-3.37 8.29-10.11v-40.56h15.68v61.12h-15v-7.16h-.23Zm71.47 4.09c0 7.88-1.95 13.78-5.85 17.72-3.9 3.94-10.43 5.91-19.6 5.91-6.67 0-11.8-1.42-15.39-4.26-3.6-2.84-5.4-6.87-5.4-12.1h15c0 1.97.8 3.52 2.39 4.66.76.53 1.57.95 2.44 1.25.87.3 1.8.45 2.78.45 3.18 0 5.41-1.02 6.7-3.07 1.29-2.04 1.93-4.58 1.93-7.61v-8.07h-.23c-1.59 2.27-3.54 4.09-5.85 5.45-2.31 1.36-4.71 2.04-7.21 2.04-6.21 0-10.89-2.37-14.03-7.1-3.14-4.73-4.71-12.67-4.71-23.8 0-3.56.21-7.19.62-10.91.42-3.71 1.29-7.06 2.61-10.05 1.32-2.99 3.26-5.43 5.79-7.33 2.54-1.89 5.93-2.84 10.17-2.84 2.2 0 4.47.61 6.82 1.82 2.35 1.21 4.28 3.41 5.79 6.59h.23v-6.82h15v58.06Zm-31.08-19.54c.19 1.89.57 3.58 1.14 5.06.57 1.48 1.36 2.65 2.39 3.52 1.02.87 2.37 1.31 4.03 1.31s3.05-.44 4.15-1.31c1.1-.87 1.97-2.06 2.61-3.58.64-1.51 1.1-3.35 1.36-5.51.26-2.16.4-4.52.4-7.1 0-7.42-.59-12.69-1.76-15.79-1.18-3.1-3.31-4.66-6.42-4.66-1.74 0-3.14.38-4.2 1.14-1.06.76-1.89 1.99-2.5 3.69-.61 1.7-1 3.98-1.19 6.82-.19 2.84-.28 6.31-.28 10.4 0 2.12.09 4.13.28 6.02Zm57.78-58.51v26.24h.23c3.03-5.23 7.99-7.84 14.88-7.84 5 0 8.84 1.36 11.53 4.09 2.69 2.73 4.03 7.16 4.03 13.29v45.33h-15.68V183.5c0-3.18-.53-5.4-1.59-6.65s-2.77-1.88-5.11-1.88c-5.53 0-8.29 3.37-8.29 10.11v40.56h-15.68v-81.12h15.68Zm67.59 36.7c.83-4.01 2.2-7.37 4.09-10.05 1.89-2.69 4.37-4.73 7.44-6.14 3.07-1.4 6.83-2.1 11.3-2.1 4.7-.07 8.6.55 11.7 1.88 3.1 1.33 5.57 3.35 7.38 6.08s3.1 6.1 3.86 10.11c.76 4.02 1.14 8.71 1.14 14.09s-.42 9.85-1.25 13.86c-.83 4.02-2.2 7.37-4.09 10.05-1.89 2.69-4.37 4.68-7.44 5.96-3.07 1.29-6.84 1.93-11.3 1.93-4.7.07-8.6-.51-11.7-1.76-3.11-1.25-5.57-3.22-7.38-5.91-1.82-2.69-3.11-6.06-3.86-10.11-.76-4.05-1.14-8.73-1.14-14.03s.42-9.85 1.25-13.86Zm14.66 22.49c.15 2.65.51 4.92 1.08 6.82.57 1.89 1.42 3.37 2.56 4.43 1.14 1.06 2.65 1.59 4.54 1.59 3.18 0 5.38-1.67 6.59-5s1.82-8.82 1.82-16.47-.61-13.14-1.82-16.47c-1.21-3.33-3.41-5-6.59-5-1.89 0-3.41.53-4.54 1.59-1.14 1.06-1.99 2.54-2.56 4.43-.57 1.89-.93 4.17-1.08 6.82-.15 2.65-.23 5.53-.23 8.63s.07 5.98.23 8.63Zm71.8 14.77c-1.67 3.03-3.83 5.19-6.48 6.48-2.65 1.29-5.68 1.93-9.09 1.93-5 0-8.84-1.31-11.53-3.92-2.69-2.61-4.03-6.99-4.03-13.12v-45.33h15.68v42.15c0 3.18.53 5.4 1.59 6.65s2.76 1.88 5.11 1.88c5.53 0 8.29-3.37 8.29-10.11v-40.56h15.68v61.12h-15v-7.16h-.23Zm40.68-53.96v8.18h.23c1.59-2.95 3.52-5.32 5.79-7.1 2.27-1.78 5.04-2.67 8.29-2.67.45 0 .93.02 1.42.06.49.04.97.1 1.42.17v15c-.83-.07-1.65-.13-2.44-.17-.8-.04-1.61-.06-2.44-.06-1.36 0-2.73.19-4.09.57-1.36.38-2.61 1-3.75 1.88-1.14.87-2.04 2.01-2.73 3.41-.68 1.4-1.02 3.12-1.02 5.17v36.7h-15.68v-61.12h15ZM74.06 260.08c5.68 0 10.26.93 13.75 2.78 3.48 1.86 6.19 4.51 8.12 7.95 1.93 3.45 3.24 7.59 3.92 12.44.68 4.85 1.02 10.26 1.02 16.25 0 7.12-.44 13.31-1.31 18.58-.87 5.27-2.37 9.6-4.49 13.01s-4.96 5.95-8.52 7.61c-3.56 1.67-8.07 2.5-13.52 2.5H47.24v-81.12h26.81Zm-3.18 69.08c2.88 0 5.19-.49 6.93-1.48 1.74-.98 3.12-2.61 4.15-4.89s1.7-5.26 2.04-8.98c.34-3.71.51-8.33.51-13.86 0-4.62-.15-8.67-.45-12.16-.3-3.48-.93-6.38-1.88-8.69-.95-2.31-2.35-4.05-4.2-5.23-1.86-1.17-4.34-1.76-7.44-1.76h-6.93v57.03h7.27Zm40.22-31.81c0-3.56.57-6.53 1.7-8.92s2.67-4.32 4.6-5.79c1.93-1.48 4.2-2.54 6.82-3.18 2.61-.64 5.4-.97 8.35-.97 4.7 0 8.48.45 11.36 1.36 2.88.91 5.11 2.2 6.7 3.86 1.59 1.67 2.67 3.65 3.24 5.96.57 2.31.85 4.83.85 7.56v32.15c0 2.88.13 5.11.4 6.7.26 1.59.78 3.29 1.53 5.11h-15c-.53-.98-.93-2.03-1.19-3.12-.27-1.1-.51-2.18-.74-3.24h-.23c-1.82 3.18-3.92 5.25-6.31 6.19-2.39.95-5.47 1.42-9.26 1.42-2.73 0-5.04-.47-6.93-1.42-1.89-.95-3.41-2.25-4.54-3.92-1.14-1.67-1.97-3.54-2.5-5.62s-.8-4.15-.8-6.19c0-2.88.3-5.36.91-7.44.61-2.08 1.53-3.86 2.78-5.34 1.25-1.48 2.84-2.71 4.77-3.69 1.93-.98 4.26-1.86 6.99-2.61l8.86-2.39c2.35-.61 3.98-1.44 4.89-2.5.91-1.06 1.36-2.61 1.36-4.66 0-2.35-.55-4.18-1.65-5.51-1.1-1.32-2.97-1.99-5.62-1.99-2.42 0-4.24.72-5.45 2.16-1.21 1.44-1.82 3.37-1.82 5.79v1.7h-14.09v-1.48Zm25.22 15.28c-1.21.49-2.31.85-3.29 1.08-3.18.68-5.45 1.82-6.82 3.41-1.36 1.59-2.04 3.75-2.04 6.48 0 2.35.45 4.36 1.36 6.02.91 1.67 2.42 2.5 4.54 2.5 1.06 0 2.16-.17 3.29-.51 1.14-.34 2.18-.89 3.12-1.65.95-.76 1.72-1.74 2.33-2.95.61-1.21.91-2.65.91-4.32v-12.04c-1.06.83-2.2 1.5-3.41 1.99Zm48.63-50.05v17.5h9.09v10.68h-9.09v33.06c0 2.42.36 4.15 1.08 5.17.72 1.02 2.22 1.53 4.49 1.53.61 0 1.21-.02 1.82-.06.61-.04 1.17-.09 1.7-.17v10.91c-1.74 0-3.43.06-5.06.17-1.63.11-3.35.17-5.17.17-3.03 0-5.51-.21-7.44-.62-1.93-.42-3.41-1.25-4.43-2.5-1.02-1.25-1.72-2.9-2.1-4.94-.38-2.04-.57-4.62-.57-7.73v-34.99h-7.95v-10.68h7.95v-17.5h15.68Zm14.42 34.77c0-3.56.57-6.53 1.7-8.92s2.67-4.32 4.6-5.79c1.93-1.48 4.2-2.54 6.82-3.18 2.61-.64 5.4-.97 8.35-.97 4.7 0 8.48.45 11.36 1.36 2.88.91 5.11 2.2 6.7 3.86 1.59 1.67 2.67 3.65 3.24 5.96.57 2.31.85 4.83.85 7.56v32.15c0 2.88.13 5.11.4 6.7.26 1.59.78 3.29 1.53 5.11h-15c-.53-.98-.93-2.03-1.19-3.12-.27-1.1-.51-2.18-.74-3.24h-.23c-1.82 3.18-3.92 5.25-6.31 6.19-2.39.95-5.47 1.42-9.26 1.42-2.73 0-5.04-.47-6.93-1.42-1.89-.95-3.41-2.25-4.54-3.92-1.14-1.67-1.97-3.54-2.5-5.62s-.8-4.15-.8-6.19c0-2.88.3-5.36.91-7.44.61-2.08 1.53-3.86 2.78-5.34 1.25-1.48 2.84-2.71 4.77-3.69 1.93-.98 4.26-1.86 6.99-2.61l8.86-2.39c2.35-.61 3.98-1.44 4.89-2.5.91-1.06 1.36-2.61 1.36-4.66 0-2.35-.55-4.18-1.65-5.51-1.1-1.32-2.97-1.99-5.62-1.99-2.42 0-4.24.72-5.45 2.16-1.21 1.44-1.82 3.37-1.82 5.79v1.7h-14.09v-1.48Zm25.23 15.28c-1.21.49-2.31.85-3.29 1.08-3.18.68-5.45 1.82-6.82 3.41-1.36 1.59-2.04 3.75-2.04 6.48 0 2.35.45 4.36 1.36 6.02.91 1.67 2.42 2.5 4.54 2.5 1.06 0 2.16-.17 3.29-.51 1.14-.34 2.18-.89 3.12-1.65.95-.76 1.72-1.74 2.33-2.95.61-1.21.91-2.65.91-4.32v-12.04c-1.06.83-2.2 1.5-3.41 1.99Zm70.43 5.62c0 1.89.15 3.62.45 5.17.3 1.55.87 2.86 1.7 3.92s1.95 1.89 3.35 2.5c1.4.61 3.16.91 5.28.91 2.5 0 4.75-.81 6.76-2.44s3.01-4.15 3.01-7.55c0-1.82-.25-3.39-.74-4.71-.49-1.32-1.31-2.52-2.44-3.58-1.14-1.06-2.63-2.03-4.49-2.9-1.86-.87-4.15-1.76-6.87-2.67-3.64-1.21-6.78-2.54-9.43-3.98-2.65-1.44-4.87-3.12-6.65-5.06a18.017 18.017 0 0 1-3.92-6.7c-.83-2.54-1.25-5.47-1.25-8.81 0-8.03 2.23-14.01 6.7-17.95 4.47-3.94 10.6-5.91 18.41-5.91 3.64 0 6.99.4 10.05 1.19 3.07.8 5.72 2.08 7.95 3.86 2.23 1.78 3.98 4.05 5.23 6.82 1.25 2.77 1.88 6.08 1.88 9.94v2.27h-15.68c0-3.86-.68-6.83-2.04-8.92-1.36-2.08-3.64-3.12-6.82-3.12-1.82 0-3.33.27-4.54.8s-2.18 1.23-2.9 2.1c-.72.87-1.21 1.87-1.48 3.01-.27 1.14-.4 2.31-.4 3.52 0 2.5.53 4.6 1.59 6.31 1.06 1.7 3.33 3.28 6.82 4.71l12.61 5.45c3.1 1.36 5.64 2.78 7.61 4.26 1.97 1.48 3.54 3.07 4.72 4.77 1.17 1.7 1.99 3.58 2.44 5.62.45 2.04.68 4.32.68 6.82 0 8.56-2.48 14.79-7.44 18.69-4.96 3.9-11.87 5.85-20.73 5.85s-15.85-2.01-19.83-6.02c-3.98-4.01-5.96-9.77-5.96-17.27v-3.29h16.36v2.39Zm58.74-.34c0 1.82.13 3.58.4 5.28.26 1.7.7 3.22 1.31 4.54.61 1.33 1.4 2.39 2.39 3.18.98.8 2.2 1.19 3.64 1.19 2.65 0 4.58-.95 5.79-2.84s2.04-4.77 2.5-8.63h14.09c-.3 7.12-2.2 12.54-5.68 16.25-3.48 3.71-8.98 5.57-16.47 5.57-5.68 0-10.11-.95-13.29-2.84s-5.53-4.39-7.04-7.5c-1.52-3.1-2.44-6.59-2.78-10.45-.34-3.86-.51-7.73-.51-11.59 0-4.09.28-8.03.85-11.82.57-3.79 1.7-7.16 3.41-10.11s4.15-5.3 7.33-7.04c3.18-1.74 7.42-2.61 12.72-2.61 4.54 0 8.27.74 11.19 2.22 2.91 1.48 5.21 3.56 6.87 6.25 1.67 2.69 2.8 5.95 3.41 9.77.61 3.83.91 8.09.91 12.78v3.52h-31.02v4.89Zm15.57-20.39c-.23-1.78-.62-3.29-1.19-4.54s-1.36-2.2-2.39-2.84c-1.02-.64-2.33-.97-3.92-.97s-2.9.36-3.92 1.08a7.751 7.751 0 0 0-2.44 2.84c-.61 1.17-1.04 2.48-1.31 3.92s-.4 2.88-.4 4.32v2.39h16.02c-.08-2.35-.23-4.41-.45-6.19Zm38.62-17.44v8.18h.23c1.59-2.95 3.52-5.32 5.79-7.1 2.27-1.78 5.04-2.67 8.29-2.67.45 0 .93.02 1.42.06.49.04.97.1 1.42.17v15c-.83-.07-1.65-.13-2.44-.17-.8-.04-1.61-.06-2.44-.06-1.36 0-2.73.19-4.09.57-1.36.38-2.61 1-3.75 1.88-1.14.87-2.04 2.01-2.73 3.41-.68 1.4-1.02 3.12-1.02 5.17v36.7h-15.68V280.1h15Zm69.53 0-15.34 61.12h-18.18l-15.79-61.12h16.36l8.75 43.74h.23l8.29-43.74h15.68Zm22.04-20.91v13.41h-15.68v-13.41h15.68Zm0 20.91v61.12h-15.68v-61.12h15.68Zm40.16 17.61c-.19-1.44-.53-2.74-1.02-3.92-.49-1.17-1.19-2.12-2.1-2.84-.91-.72-2.12-1.08-3.64-1.08-1.89 0-3.45.44-4.66 1.31-1.21.87-2.12 2.16-2.73 3.86-.61 1.7-1.02 3.86-1.25 6.48-.23 2.61-.34 5.7-.34 9.26 0 3.79.11 7.03.34 9.71.23 2.69.64 4.91 1.25 6.65.61 1.74 1.46 3.01 2.56 3.81 1.1.8 2.52 1.19 4.26 1.19 2.65 0 4.58-1.14 5.79-3.41 1.21-2.27 1.82-5.91 1.82-10.91h15c0 8.03-1.8 14.14-5.4 18.35-3.6 4.2-9.56 6.31-17.89 6.31-3.94 0-7.37-.47-10.28-1.42-2.92-.95-5.34-2.65-7.27-5.11-1.93-2.46-3.39-5.75-4.37-9.88-.98-4.13-1.48-9.26-1.48-15.4s.6-11.49 1.82-15.62c1.21-4.13 2.91-7.42 5.11-9.88 2.2-2.46 4.81-4.18 7.84-5.17 3.03-.98 6.36-1.48 10-1.48 7.27 0 12.74 2.12 16.42 6.36 3.67 4.24 5.51 10 5.51 17.27h-15c0-1.51-.1-2.99-.28-4.43Zm36.87 20.22c0 1.82.13 3.58.4 5.28.26 1.7.7 3.22 1.31 4.54.61 1.33 1.4 2.39 2.39 3.18.98.8 2.2 1.19 3.64 1.19 2.65 0 4.58-.95 5.79-2.84s2.04-4.77 2.5-8.63h14.09c-.3 7.12-2.2 12.54-5.68 16.25-3.48 3.71-8.98 5.57-16.47 5.57-5.68 0-10.11-.95-13.29-2.84s-5.53-4.39-7.04-7.5c-1.52-3.1-2.44-6.59-2.78-10.45-.34-3.86-.51-7.73-.51-11.59 0-4.09.28-8.03.85-11.82.57-3.79 1.7-7.16 3.41-10.11s4.15-5.3 7.33-7.04c3.18-1.74 7.42-2.61 12.72-2.61 4.54 0 8.27.74 11.19 2.22 2.91 1.48 5.21 3.56 6.87 6.25 1.67 2.69 2.8 5.95 3.41 9.77.61 3.83.91 8.09.91 12.78v3.52h-31.02v4.89Zm15.56-20.39c-.23-1.78-.62-3.29-1.19-4.54s-1.36-2.2-2.39-2.84c-1.02-.64-2.33-.97-3.92-.97s-2.9.36-3.92 1.08a7.751 7.751 0 0 0-2.44 2.84c-.61 1.17-1.04 2.48-1.31 3.92s-.4 2.88-.4 4.32v2.39h16.02c-.08-2.35-.23-4.41-.45-6.19Zm35.11 25.73c0 2.65.7 4.79 2.1 6.42 1.4 1.63 3.43 2.44 6.08 2.44 2.42 0 4.35-.61 5.79-1.82 1.44-1.21 2.16-3.03 2.16-5.45 0-1.97-.57-3.46-1.7-4.49a13.15 13.15 0 0 0-3.98-2.44l-11.02-3.98c-4.32-1.51-7.57-3.65-9.77-6.42-2.2-2.76-3.29-6.31-3.29-10.62 0-2.5.42-4.87 1.25-7.1.83-2.23 2.16-4.18 3.98-5.85 1.82-1.67 4.15-2.99 6.99-3.98 2.84-.98 6.27-1.48 10.28-1.48 7.12 0 12.38 1.52 15.79 4.54 3.41 3.03 5.11 7.31 5.11 12.84v2.5h-14.09c0-3.18-.51-5.51-1.53-6.99-1.02-1.48-2.82-2.22-5.4-2.22-1.97 0-3.69.55-5.17 1.65-1.48 1.1-2.22 2.75-2.22 4.94 0 1.52.47 2.88 1.42 4.09s2.74 2.23 5.4 3.07l9.43 3.18c4.92 1.67 8.41 3.85 10.45 6.53 2.05 2.69 3.07 6.34 3.07 10.96 0 3.26-.57 6.08-1.7 8.46-1.14 2.39-2.71 4.37-4.72 5.96-2.01 1.59-4.39 2.73-7.16 3.41-2.77.68-5.81 1.02-9.15 1.02-4.39 0-8.05-.42-10.96-1.25-2.92-.83-5.23-2.08-6.93-3.75-1.7-1.67-2.9-3.69-3.58-6.08s-1.02-5.06-1.02-8.01v-2.16h14.09v2.04Z" style="fill:#fff;stroke-width:0"/>
  </g>
  <g style="opacity:.75">
    <path d="M218.24 111.83h-31.86l-36.61-48.34-11.83 11.34v37.01h-24.38V1.18h24.38v45.57l45.78-45.57h32.02l-48.6 45.57 51.09 65.08Zm90.43-24.02c-.59 4.85-3.3 9.78-8.13 14.79-7.51 7.96-18.02 11.94-31.54 11.94-11.16 0-21-3.35-29.53-10.06-8.53-6.71-12.79-17.62-12.79-32.73 0-14.16 3.85-25.02 11.55-32.58 7.7-7.56 17.69-11.34 29.97-11.34 7.29 0 13.87 1.28 19.71 3.83 5.85 2.55 10.67 6.58 14.48 12.09 3.43 4.85 5.66 10.48 6.68 16.89.59 3.75.83 9.16.72 16.21h-60.02c.32 8.21 3.08 13.96 8.29 17.27 3.16 2.05 6.97 3.08 11.43 3.08 4.72 0 8.56-1.25 11.51-3.75 1.61-1.35 3.03-3.23 4.26-5.63h23.41Zm-22.69-25.08c-.38-5.65-2.21-9.95-5.51-12.87-3.3-2.93-7.39-4.39-12.27-4.39-5.31 0-9.43 1.55-12.35 4.65-2.92 3.1-4.76 7.31-5.51 12.61h35.64Zm117.63 25.08c-.59 4.85-3.3 9.78-8.13 14.79-7.51 7.96-18.02 11.94-31.54 11.94-11.16 0-21-3.35-29.53-10.06-8.53-6.71-12.79-17.62-12.79-32.73 0-14.16 3.85-25.02 11.55-32.58 7.7-7.56 17.69-11.34 29.97-11.34 7.29 0 13.87 1.28 19.71 3.83 5.85 2.55 10.67 6.58 14.48 12.09 3.43 4.85 5.66 10.48 6.68 16.89.59 3.75.83 9.16.72 16.21h-60.02c.32 8.21 3.08 13.96 8.29 17.27 3.16 2.05 6.97 3.08 11.43 3.08 4.72 0 8.56-1.25 11.51-3.75 1.61-1.35 3.03-3.23 4.26-5.63h23.41Zm-22.69-25.08c-.38-5.65-2.21-9.95-5.51-12.87-3.3-2.93-7.39-4.39-12.27-4.39-5.31 0-9.43 1.55-12.35 4.65-2.92 3.1-4.76 7.31-5.51 12.61h35.64Zm116.01-23.94c7.08 7.06 10.62 17.42 10.62 31.08 0 14.41-3.47 25.4-10.42 32.96-6.95 7.56-15.89 11.34-26.83 11.34-6.97 0-12.77-1.63-17.38-4.88-2.52-1.8-4.99-4.43-7.4-7.88v42.64h-22.69V30h21.97v12.09c2.47-3.55 5.1-6.35 7.88-8.41 5.1-3.65 11.16-5.48 18.18-5.48 10.24 0 18.93 3.53 26.07 10.58ZM483.9 70.91c0-6.31-1.54-11.89-4.63-16.74-3.08-4.85-8.09-7.28-15.01-7.28-8.31 0-14.03 3.68-17.14 11.04-1.61 3.9-2.41 8.86-2.41 14.86 0 9.51 2.71 16.19 8.13 20.04 3.22 2.25 7.03 3.38 11.43 3.38 6.38 0 11.25-2.3 14.6-6.91 3.35-4.6 5.03-10.73 5.03-18.39ZM600.08.5v19.74h-23.25V.5h23.25Zm0 29.5v81.83h-23.25V30h23.25Zm65.65 66.59v15.99l-10.86.38c-10.84.35-18.24-1.4-22.21-5.25-2.57-2.45-3.86-6.23-3.86-11.34V46h-12.23V30.76h12.23V7.93h22.69v22.82h14.24v15.24h-14.24v43.24c0 3.35.46 5.44 1.37 6.27.91.83 3.7 1.24 8.37 1.24.7 0 1.43-.01 2.21-.04.78-.02 1.54-.06 2.29-.11Zm127.52-62.83c6.87 4.1 10.81 11.16 11.83 21.17h-22.93c-.32-2.75-1.15-4.93-2.49-6.53-2.52-2.9-6.81-4.35-12.88-4.35-4.99 0-8.54.73-10.66 2.18-2.12 1.45-3.18 3.15-3.18 5.1 0 2.45 1.13 4.23 3.38 5.33 2.25 1.15 10.22 3.13 23.9 5.93 9.12 2 15.96 5.03 20.52 9.08 4.5 4.1 6.76 9.23 6.76 15.39 0 8.11-3.23 14.73-9.7 19.86-6.46 5.13-16.45 7.69-29.97 7.69s-23.96-2.72-30.53-8.14c-6.57-5.43-9.86-12.35-9.86-20.76h23.25c.48 3.8 1.53 6.51 3.14 8.11 2.84 2.85 8.1 4.28 15.77 4.28 4.51 0 8.09-.62 10.74-1.88 2.65-1.25 3.98-3.13 3.98-5.63s-1.07-4.23-3.22-5.48c-2.15-1.25-10.11-3.4-23.9-6.46-9.92-2.3-16.92-5.18-21-8.63-4.08-3.4-6.11-8.31-6.11-14.71 0-7.56 3.18-14.05 9.53-19.48 6.36-5.43 15.3-8.15 26.83-8.15s19.87 2.03 26.79 6.08ZM851.34.5v19.74h-23.25V.5h23.25Zm0 29.5v81.83h-23.25V30h23.25Zm74.74 22.52c-1.93-3.95-5.71-5.93-11.34-5.93-6.54 0-10.94 1.98-13.2 5.93-1.23 2.25-1.85 5.61-1.85 10.06v49.25h-23.25V30.15h22.29v11.94c2.84-4.25 5.52-7.28 8.05-9.08 4.45-3.2 10.22-4.8 17.3-4.8 6.71 0 12.12 1.38 16.25 4.13 3.33 2.55 5.85 5.83 7.56 9.83 3-4.8 6.73-8.33 11.18-10.58 4.72-2.25 9.98-3.38 15.77-3.38 3.86 0 7.67.7 11.43 2.1 3.75 1.4 7.16 3.85 10.22 7.36 2.47 2.85 4.13 6.36 4.99 10.51.54 2.75.8 6.78.8 12.09l-.16 51.57h-23.49v-52.1c0-3.1-.54-5.65-1.61-7.66-2.04-3.8-5.79-5.71-11.26-5.71-6.33 0-10.7 2.45-13.11 7.36-1.23 2.6-1.85 5.73-1.85 9.38v48.72h-23.09V63.11c0-4.85-.54-8.38-1.61-10.58Zm174.03-13.73c7.08 7.06 10.62 17.42 10.62 31.08 0 14.41-3.47 25.4-10.42 32.96-6.95 7.56-15.89 11.34-26.83 11.34-6.97 0-12.77-1.63-17.38-4.88-2.52-1.8-4.99-4.43-7.4-7.88v42.64h-22.69V30h21.96v12.09c2.47-3.55 5.1-6.35 7.88-8.41 5.1-3.65 11.16-5.48 18.18-5.48 10.25 0 18.93 3.53 26.07 10.58Zm-13.04 32.12c0-6.31-1.54-11.89-4.63-16.74-3.08-4.85-8.09-7.28-15.01-7.28-8.31 0-14.03 3.68-17.14 11.04-1.61 3.9-2.41 8.86-2.41 14.86 0 9.51 2.71 16.19 8.13 20.04 3.22 2.25 7.03 3.38 11.42 3.38 6.38 0 11.25-2.3 14.6-6.91 3.35-4.6 5.03-10.73 5.03-18.39Zm44.01-69.73h22.93v110.65h-22.93V1.18Zm123.66 86.63c-.59 4.85-3.3 9.78-8.13 14.79-7.51 7.96-18.02 11.94-31.54 11.94-11.16 0-21-3.35-29.53-10.06-8.53-6.71-12.79-17.62-12.79-32.73 0-14.16 3.85-25.02 11.55-32.58 7.7-7.56 17.69-11.34 29.97-11.34 7.29 0 13.87 1.28 19.71 3.83 5.85 2.55 10.67 6.58 14.48 12.09 3.43 4.85 5.66 10.48 6.68 16.89.59 3.75.83 9.16.72 16.21h-60.02c.32 8.21 3.08 13.96 8.29 17.27 3.16 2.05 6.97 3.08 11.43 3.08 4.72 0 8.55-1.25 11.5-3.75 1.61-1.35 3.03-3.23 4.26-5.63h23.41Zm-22.69-25.08c-.38-5.65-2.21-9.95-5.51-12.87s-7.39-4.39-12.27-4.39c-5.31 0-9.43 1.55-12.35 4.65-2.92 3.1-4.76 7.31-5.51 12.61h35.64Z" style="fill:none;stroke:#fff;stroke-miterlimit:10"/>
  </g>
</svg>
