<svg fill="#210076" data-bbox="20.532 45.947 158.928 108.107" viewBox="20.532 45.947 158.928 108.107" height="200" width="200" xmlns="http://www.w3.org/2000/svg" data-type="color" aria-hidden="true">
    <path d="m82.935 75.852 44.836 20.692a4.833 4.833 0 0 0 4.048 0l44.836-20.692a4.828 4.828 0 0 0 0-8.768l-44.836-20.692a4.826 4.826 0 0 0-4.047 0L82.935 67.083a4.828 4.828 0 0 0 0 8.769zm46.86-19.759 33.312 15.374-33.312 15.374-33.312-15.374 33.312-15.374z" data-color="1"/>
    <path d="m172.608 95.616-42.813 19.758-42.813-19.758a4.83 4.83 0 0 0-4.047 8.769l44.836 20.692a4.833 4.833 0 0 0 4.048 0l44.836-20.692a4.83 4.83 0 0 0-4.047-8.769z" data-color="1"/>
    <path d="m172.608 124.149-42.813 19.758-42.813-19.758a4.828 4.828 0 1 0-4.047 8.769l44.836 20.692a4.833 4.833 0 0 0 4.048 0l44.836-20.692a4.83 4.83 0 0 0-4.047-8.769zM65.095 95.171H25.368a4.829 4.829 0 1 0 0 9.658h39.727a4.829 4.829 0 1 0 0-9.658zm0-18.725H37.44a4.829 4.829 0 1 0 0 9.658h27.655a4.829 4.829 0 1 0 0-9.658zm0 37.451H49.512a4.829 4.829 0 1 0 0 9.658h15.583a4.829 4.829 0 1 0 0-9.658z" data-color="1"/>
</svg>
