<svg
    xmlns="http://www.w3.org/2000/svg"
    viewBox="0 0 3840 2160"
    fill="none"
    opacity="0.3"
    stroke-width="4.7"
    stroke="white"
  >
   	<path d="m3836.9 0c1.2 720-1.4 1440 0 2160m-106.5-2160c3.8 103.8-2.8 207.1-8.5 310.7-4.8 86.1-2.7 171.8-4.7 257.9-3.9 170.8 19.8 340.8 13.1 511.7-6.2 162 18.5 322.7 15.6 484.6-1.6 91.7-0.1 183-5.6 274.7-6.5 106.8-14.7 213.3-9.9 320.4m-106.5-2160c3.8 102.2-12.6 200.9-27.9 301.5-12.9 84.6-15.2 167.3-16.1 252.6-1.6 176.7 50.7 349.1 43.9 526.2-6 157.9 50.1 307.2 51 464.1 0.6 95.2-4.3 187.9-18.5 282.1-16.6 110.8-37.5 221-32.4 333.5m-106.5-2160c1.4 101-27.4 192.7-55.2 288.7-23.6 81.2-34.5 160.3-32.1 244.9 5.3 185.8 89.4 359.8 87.3 546.6-1.8 154.9 91.3 283.5 100.7 435.5 13.6 222-104.4 424.1-100.7 644.3m-106.5-2160c-4.6 183.3-152.8 322.5-138.1 509.6 15.4 196.9 131.7 371.6 138.1 570.4 5 155.5 138 253.2 158.9 402 14.6 103.7-23.7 208.6-57.7 304.8-42.8 121-97.5 243.1-101.2 373.2m-106.5-2160c-12.9 182.7-216.1 294.7-191.4 484.5 27.2 208.9 174.1 383.5 191.4 595.3 13.2 159.9 185.3 219.2 219.9 367 24.6 105.2-38.4 224.2-79.8 317.5-56.2 126.4-129.4 255.4-140.1 395.7m-106.5-2160c-11.8 104.7-84.7 169.3-152.4 242.8-56.1 60.8-104.7 131.2-89.6 217.8 38.7 220.7 213.6 394.5 242.1 619 21.1 166.6 229.3 185.6 277.8 333.7 34.3 104.8-54.5 240.6-100.9 329.7-68.4 131.3-159.6 267-177 417m-106.5-2160c-14.9 107.5-102.5 164.4-179.4 230-63.4 54.1-123.8 121-105.4 210.3 47.4 231.3 248.4 403.4 284.9 639.2 26.9 174 267 156.4 327 305.4 18.1 45 2.6 91.3-13.9 134.7-27.2 71.8-66.4 139.1-104.8 205.3-78.6 135.1-186.4 276.8-208.4 435.1m-106.5-2160c-25.6 188.2-359.2 219.7-314.9 426.1 26.9 125.8 113.3 239.9 179 347.7 58.6 96.2 118.7 193 136 305.7 27.9 181.6 295.6 134.2 361.7 285.3 19.6 44.8 2.4 92.5-15.1 135.5-30.2 74.5-73.8 143.8-116.2 211.8-85.4 136.8-208 283.8-230.5 447.9m-106.5-2160c-19 198.9-369.8 201.9-327.1 420.4 25 127.8 119 244.2 187.2 351.5 60.5 95.2 127 193.6 140 307.9 21.5 189.3 312.1 121.3 376 276.8 18.2 44.3 2.5 93.1-14.7 135.3-31.1 76-77.3 146.3-121.8 215-52.4 80.8-108 159.7-156.5 243-38.4 65.9-75.4 133-83.1 210.1m-106.5-2160c-22.3 193.8-364.4 213.2-321.1 425.8 49.1 240.6 291.1 406.3 321 653.6 22.6 186.8 313.8 137.7 378.2 293.6 18.2 44 2.5 93.7-14.7 135.6-30.6 74.4-77.4 142.5-122.5 208.7-89.7 131.6-225.9 277.8-240.9 442.7m-106.4-2160c-22.4 192-348.5 229.7-306.8 438.6 47 235.1 277.4 399.3 306.6 640.7 23.1 190.8 317.6 169.2 382.8 332.1 44 109.6-79.1 250-138.9 330.4-91.5 122.9-229.3 258.4-243.7 418.2m-106.5-2160c-19.9 192.6-325 249.6-286.4 456.6 42.5 227.9 259.2 389.3 286.3 622.9 23.2 200.1 322.8 210.9 389.2 385.9 41.8 110.1-77.2 234.5-141.2 310.8-93 110.6-233.3 231.8-247.9 383.8m-106.5-2160c-16.1 194.7-297 271.6-262.4 477.9 36.7 219.4 238.4 377.5 262.4 601.9 10.6 99.3 98.1 164.1 171.3 222.1 77.6 61.5 190.4 128.6 225.5 226.9 39.4 110.5-74.8 217-144.1 287.7-93.9 96-237.5 200.5-252.7 343.5m-106.5-2160c-11.9 197.2-267.4 293.8-237.3 500.2 30.6 210.5 216.6 365.2 237.4 579.9 10.3 105.9 101.3 183.6 174.8 251.8 80.1 74.3 193.5 155.3 229.9 263.4 37.3 110.9-72 199.7-147 263.6-94.3 80.4-241.9 167-257.8 301.1m-106.5-2160c-8.2 199.4-239.2 314.8-213.4 521.4 25.2 201.7 195.7 353.6 213.6 559 9.9 112.5 104.5 202.3 178.1 279.9 82.2 86.6 196.3 180.6 234.1 298.2 35.7 111.6-69.1 184.6-149.7 240.7-94.1 65.4-246 134.2-262.7 260.8m-106.5-2160c-6 200.9-215.7 332.9-193.1 539.5 21.2 194 177.4 343.8 193.4 541 9.6 118 107.4 218.2 180.9 303.5 83.7 97.2 198.6 202.3 237.6 328.4 34.8 112.3-66.4 173.1-152 221.1-93.8 52.6-249.8 104.9-266.8 226.5m-106.5-2160c-6.1 201.2-200.3 346.3-178.8 552.2 19.7 188.3 163.6 337.1 179.1 528.3 9.8 121.6 109.9 228.9 182.8 319.5 84.5 105 200.1 218.3 240.3 350.5 74.1 243-394.6 202.7-423.4 409.5m-106.5-2160c-9.6 199-196.1 354.3-172.9 557.4 21.2 185.5 156.2 334.6 173 522.7 11 122.3 111.8 232.3 183.6 325.1 84.3 108.9 200.4 226.6 241.7 361.3 75.6 247.3-398.8 183.7-425.4 393.5m-106.5-2160c-9.8 199.1-195.9 355-172.7 558 21.3 185.3 155.6 334.4 172.9 522.2 11.2 121.9 110.3 230 182.6 322.1 84 107 198.7 222.1 239.7 355.2 74.7 243.4-393.7 195.8-422.5 402.5m-106.5-2160c-9.8 199.3-195.4 356.2-172.1 559.5 21.1 184.8 155 333.4 172.3 520.8 11 119.5 107.7 223.7 179.7 313 82.9 102.9 195.8 213.5 235.6 342.9 74 240.1-386.5 217.1-415.5 423.8m-106.5-2160c-9.7 199.8-194.6 357.9-171.4 561.6 21 184.1 154.7 331.9 171.6 518.6 10.5 115.8 104.3 214.6 175.4 299.9 81 97.1 191.9 201.8 230.2 326 73.2 237.6-378.2 244.9-405.8 453.9m-106.5-2160c-9.6 200.4-193.6 359.9-170.5 564 20.8 183.3 154.3 330.2 170.7 516.1 9.7 111.3 100.3 203.8 170.2 284.1 78.8 90.4 187.4 188.3 223.9 306.4 33.8 109.8-62.4 181.3-143.1 236.3-94 64-236.2 127-251.2 253.1m-106.5-2160c-9.4 201-192.6 361.9-169.5 566.6 20.6 182.4 154 328.3 169.6 513.4 9.1 106.6 96.2 192.4 164.9 267.4 76.4 83.5 182.7 174.2 217.2 286 33.7 109.1-61.8 189.1-138.7 249.8-93 73.4-229.9 147.2-243.5 276.8m-106.5-2160c-9.3 201.6-191.6 363.9-168.6 569.1 20.3 181.5 153.7 326.5 168.7 510.8 8.3 102.3 92.2 181.6 159.7 251.6 74.2 76.8 178.2 160.6 210.9 266.4 33.6 108.7-61.4 196.8-134.6 262.7-91.4 82.3-223.6 166.3-236.1 299.4m-106.5-2160c-9.2 202.1-190.8 365.5-167.8 571.2 20.2 180.7 153.3 325 167.9 508.6 7.8 98.8 88.6 172.7 155.4 238.4 72.4 71 174.1 148.6 205.4 249.5 33.6 108.4-61.2 203.6-131 273.6-89.6 89.9-218.1 182.8-229.9 318.7m-106.4-2160c-9.3 202.4-190.4 366.8-167.4 572.7 20.1 180.2 152.9 324 167.4 507.1 16.5 207.5 295.2 277.6 353.8 466.4 33.7 108.3-61.3 208.4-128.4 281.4-87.6 95.3-213.5 194.9-225.4 332.4m-106.5-2160c-9.5 202.4-190.2 367.4-167.2 573.3 20.2 180.1 152.2 323.8 167.3 506.7 17 206.2 292.3 270 350.8 457 33.7 108-62 210.2-127.4 284.8-85.6 97.6-210.2 201.2-223.5 338.2m-106.5-2160c-13 198.6-185.8 371.7-160.9 573.3 11.5 93 54.5 179.2 91.4 264 34.8 80 60.1 155.9 69.7 242.7 22.3 200.8 276.6 275.3 337.3 458.4 34.7 104.8-60.6 209.7-122.6 284.3-83 99.9-196.5 202.5-214.9 337.3m-106.5-2160c-7.4 111.2-52 211.2-91.7 313.9-31.5 81.5-64.3 170.7-53.8 259.6 20.6 176.3 125.9 328.7 145.7 506.4 21.7 194.3 249.3 282.5 304.9 461.9 31.8 102.3-53 206.2-110.8 283-76.5 101.8-176.1 204.2-194.3 335.2m-106.5-2160c-10.7 195.5-143 376.4-123.6 573.7 17.1 174.3 107.6 330.8 123.8 506.3 17.2 187 213.3 290.8 259 466.6 26.1 100.4-41.9 200.8-94.1 281.3-67 103.4-150.7 205.9-165.1 332.1m-106.5-2160c-6.8 195-111.8 377.7-97.8 573.9 12.4 172.5 87.5 332.7 97.9 506.1 10.8 179.6 171.8 300.1 205 472.3 19.1 98.6-29.7 194.4-74.4 279.2-55.2 104.8-121.8 207.6-130.7 328.5m-106.5-2160c-2.5 194.1-78.7 379.3-70.6 574.2 7.2 170.9 66.5 334.3 70.6 505.8 4.1 173 127.8 309.5 148.2 478.3 25.9 213.9-142.6 391.3-148.2 601.7m-106.5-2160c1.4 192.8-47.4 381.2-44.6 574.4 2.5 169.7 45.9 335.6 44.5 505.6-1.4 168.1 84.9 317.9 94 484 11.3 206.5-97.1 391.5-93.9 596m-106.5-2160c3.8 191.7-21.5 382.8-22.4 574.6-0.8 168.9 27 336.5 22.3 505.4-4.7 165.4 46.8 324.2 47.6 488.9 0.5 92.1-3.4 181.9-17.2 273.2-16 105.8-34.8 210.4-30.3 317.9m-106.5-2160c3.7 191.3-4.5 383.4-6.7 574.8-2 168.4 11.4 336.8 6.6 505.2-4.7 164.5 17.3 328 14.6 492.3-1.6 90.8 0 181.2-5.3 272-6.1 105.3-13.5 210.2-9.2 315.7m-106.5-2160c0.6 720-1.3 1440 0 2160"/>
</svg>
